<svg width="38" height="38" viewBox="0 0 38 38" fill="none" xmlns="http://www.w3.org/2000/svg">
<circle cx="19" cy="19" r="19" fill="#140606"/>
<path d="M27.8333 25.6667V26.3611C27.8333 27.5117 26.9006 28.4444 25.75 28.4444H9.08333C7.93273 28.4444 7 27.5117 7 26.3611V15.25C7 14.0994 7.93273 13.1667 9.08333 13.1667H9.77778V22.1944C9.77778 24.109 11.3354 25.6667 13.25 25.6667H27.8333ZM32 22.1944V11.0833C32 9.93273 31.0673 9 29.9167 9H13.25C12.0994 9 11.1667 9.93273 11.1667 11.0833V22.1944C11.1667 23.3451 12.0994 24.2778 13.25 24.2778H29.9167C31.0673 24.2778 32 23.3451 32 22.1944ZM18.1111 13.1667C18.1111 14.3173 17.1784 15.25 16.0278 15.25C14.8772 15.25 13.9444 14.3173 13.9444 13.1667C13.9444 12.0161 14.8772 11.0833 16.0278 11.0833C17.1784 11.0833 18.1111 12.0161 18.1111 13.1667ZM13.9444 19.4167L16.3539 17.0072C16.5573 16.8038 16.8871 16.8038 17.0905 17.0072L18.8056 18.7222L24.6873 12.8405C24.8907 12.6371 25.2204 12.6371 25.4239 12.8405L29.2222 16.6389V21.5H13.9444V19.4167Z" fill="#FF6400"/>
</svg>
